<svg width="512" height="512" viewBox="0 0 512 512" fill="none" xmlns="http://www.w3.org/2000/svg">
<rect width="512" height="512" rx="112" fill="url(#paint0_linear_1500_20)"/>
<rect x="3" y="3" width="506" height="506" rx="109" stroke="#54DDFF" stroke-opacity="0.48" stroke-width="6"/>
<line x1="249.833" y1="404.5" x2="328.167" y2="404.5" stroke="#7182FF" stroke-width="15" stroke-linecap="round"/>
<line x1="187.445" y1="350.158" x2="221.907" y2="374.288" stroke="#5EEEFF" stroke-width="15" stroke-linecap="round"/>
<line x1="7.5" y1="-7.5" x2="49.5692" y2="-7.5" transform="matrix(0.819152 -0.573577 0.573576 0.819153 182.469 411.877)" stroke="#5EEEFF" stroke-width="15" stroke-linecap="round"/>
<path d="M125.968 291L186.218 108.5H252.468L314.968 291H272.468L221.968 136.75L234.968 142H202.718L216.218 136.75L166.968 291H125.968ZM171.718 245.75L184.218 211.75H255.718L268.468 245.75H171.718ZM327.274 291V108.5H368.274V291H327.274Z" fill="url(#paint1_linear_1500_20)"/>
<defs>
<linearGradient id="paint0_linear_1500_20" x1="47" y1="15.5" x2="478" y2="475.5" gradientUnits="userSpaceOnUse">
<stop stop-color="#17243A"/>
<stop offset="1" stop-color="#080F1E"/>
</linearGradient>
<linearGradient id="paint1_linear_1500_20" x1="170.275" y1="131.858" x2="328.485" y2="343.03" gradientUnits="userSpaceOnUse">
<stop stop-color="#56F0FF"/>
<stop offset="0.466346" stop-color="#1CC8F3"/>
<stop offset="1" stop-color="#7182FF"/>
</linearGradient>
</defs>
</svg>
